<?xml version="1.0" standalone="no"?>
<!DOCTYPE svg PUBLIC "-//W3C//DTD SVG 20010904//EN"
 "http://www.w3.org/TR/2001/REC-SVG-20010904/DTD/svg10.dtd">
<svg version="1.0" xmlns="http://www.w3.org/2000/svg"
 width="480.000000pt" height="366.000000pt" viewBox="0 0 480.000000 366.000000"
 preserveAspectRatio="xMidYMid meet">

<g transform="translate(0.000000,366.000000) scale(0.100000,-0.100000)"
fill="#000000" stroke="none">
<path d="M2360 3634 c-32 -11 -35 -15 -38 -55 -2 -24 -9 -47 -15 -51 -9 -6 -9
-8 1 -8 6 0 12 -9 12 -20 0 -18 6 -20 68 -18 l67 2 -63 3 c-81 5 -79 26 4 34
l59 5 -60 5 -60 4 -3 38 -3 37 55 0 c31 0 56 5 56 10 0 6 -9 10 -19 10 -11 0
-21 3 -23 8 -1 4 -19 2 -38 -4z"/>
<path d="M462 3555 c2 -69 2 -72 5 -22 2 31 7 57 11 57 4 0 32 -25 62 -55 30
-30 58 -55 62 -55 4 0 8 32 8 70 0 40 -4 70 -10 70 -6 0 -10 -26 -10 -57 l0
-57 -65 64 -65 64 2 -79z"/>
<path d="M675 3623 c-31 -8 -46 -24 -43 -47 2 -17 14 -23 58 -32 38 -7 56 -15
58 -27 4 -22 -43 -33 -80 -19 -15 5 -28 7 -28 2 0 -19 82 -28 108 -11 8 4 12
19 10 32 -2 20 -12 25 -55 34 -61 12 -70 19 -53 40 14 17 72 20 101 5 12 -7
19 -7 19 -1 0 9 -22 18 -60 26 -8 1 -24 0 -35 -2z"/>
<path d="M1454 3621 c-27 -12 -54 -49 -54 -74 0 -34 45 -67 92 -67 46 1 68 12
86 47 13 24 4 61 -21 81 -20 17 -77 24 -103 13z m98 -28 c41 -37 6 -103 -55
-103 -66 0 -100 58 -60 102 21 23 89 24 115 1z"/>
<path d="M1844 3620 c-12 -5 -28 -18 -37 -30 l-14 -21 -17 26 c-14 22 -24 25
-71 25 l-55 0 0 -70 c0 -40 4 -70 10 -70 6 0 10 9 10 20 0 17 7 20 42 20 24 0
49 7 60 17 11 10 18 12 18 4 0 -7 11 -23 25 -36 18 -19 35 -25 67 -25 46 1 68
12 86 47 32 59 -53 122 -124 93z m-80 -32 c18 -29 -4 -53 -53 -56 l-41 -3 0
41 0 41 41 -3 c27 -2 46 -9 53 -20z m174 6 c47 -33 12 -104 -51 -104 -66 0
-100 58 -60 102 20 22 80 24 111 2z"/>
<path d="M2520 3623 c-30 -11 -60 -47 -60 -70 0 -36 42 -73 84 -73 39 0 66 8
66 20 0 5 -13 3 -28 -2 -38 -15 -78 -3 -98 28 -16 24 -16 27 3 52 18 23 28 27
72 27 28 -1 47 3 43 7 -11 11 -64 18 -82 11z"/>
<path d="M2772 3573 c-1 -35 -6 -63 -10 -63 -4 0 -32 25 -62 55 -30 30 -58 55
-62 55 -4 0 -8 -31 -8 -70 0 -40 4 -70 10 -70 6 0 10 26 10 57 l0 57 60 -59
c33 -32 62 -56 65 -53 3 3 4 39 2 79 l-3 74 -2 -62z"/>
<path d="M2894 3616 c-77 -34 -46 -136 42 -136 38 0 64 9 64 21 0 6 -8 5 -19
-1 -31 -16 -66 -12 -95 11 -31 25 -33 52 -5 80 18 18 30 21 71 17 27 -3 45 -1
41 3 -16 16 -68 19 -99 5z"/>
<path d="M3070 3623 c-29 -11 -60 -47 -60 -70 0 -38 42 -73 88 -73 98 0 129
108 41 139 -34 12 -46 12 -69 4z m90 -33 c27 -27 25 -55 -6 -79 -36 -28 -79
-27 -109 4 -30 29 -31 35 -4 69 26 33 88 37 119 6z"/>
<path d="M3262 3555 c2 -69 2 -72 5 -22 2 31 7 57 11 57 4 0 32 -25 62 -55 30
-30 58 -55 62 -55 4 0 7 35 6 78 -2 76 -2 76 -5 15 -2 -35 -7 -63 -11 -63 -3
0 -35 28 -69 62 l-63 62 2 -79z"/>
<path d="M3482 3579 c-17 -27 -35 -49 -40 -49 -4 0 -8 -12 -8 -28 l-2 -27 15
23 c13 18 25 22 69 22 43 0 56 -4 68 -22 9 -12 18 -20 20 -17 4 4 -65 122 -82
141 -4 4 -22 -15 -40 -43z m78 -41 c0 -5 -18 -8 -40 -8 -44 0 -48 8 -23 47
l17 25 23 -28 c13 -16 23 -32 23 -36z"/>
<path d="M3654 3620 c-26 -10 -54 -48 -54 -73 0 -10 11 -29 25 -42 18 -19 35
-25 69 -25 25 0 47 4 50 9 4 5 -11 7 -34 4 -52 -7 -90 16 -90 56 0 46 30 65
92 58 49 -6 51 -5 28 8 -28 16 -55 18 -86 5z"/>
<path d="M3864 3621 c-27 -12 -54 -49 -54 -74 0 -33 45 -67 89 -67 53 0 69 7
86 41 16 30 9 65 -18 87 -20 17 -77 24 -103 13z m98 -28 c41 -37 6 -103 -55
-103 -66 0 -100 58 -60 102 21 23 89 24 115 1z"/>
<path d="M4022 3555 c2 -68 2 -72 5 -22 2 31 7 57 11 57 3 0 32 -26 64 -57
l58 -57 -2 79 c-2 77 -2 77 -5 18 -2 -35 -6 -63 -8 -63 -1 0 -30 28 -64 63
l-61 62 2 -80z"/>
<path d="M410 3550 c0 -40 4 -70 10 -70 6 0 10 30 10 70 0 40 -4 70 -10 70 -6
0 -10 -30 -10 -70z"/>
<path d="M807 3613 l32 -4 4 -67 3 -67 2 67 2 67 33 4 c17 2 1 4 -38 4 -38 0
-56 -2 -38 -4z"/>
<path d="M933 3550 c0 -41 2 -58 4 -37 2 20 2 54 0 75 -2 20 -4 3 -4 -38z"/>
<path d="M987 3613 l32 -4 4 -67 3 -67 2 67 2 67 33 4 c17 2 1 4 -38 4 -38 0
-56 -2 -38 -4z"/>
<path d="M1100 3570 c0 -63 23 -90 78 -90 55 0 72 23 71 91 l-2 54 -6 -58 c-7
-61 -19 -77 -59 -77 -48 0 -62 17 -62 75 0 30 -4 55 -10 55 -5 0 -10 -22 -10
-50z"/>
<path d="M1295 3611 c29 -6 30 -9 36 -71 l6 -65 1 67 c2 65 3 67 30 71 15 2
-2 4 -38 4 -43 1 -55 -2 -35 -6z"/>
<path d="M2002 3553 l-2 -73 63 2 62 2 -57 3 -57 4 -4 67 -3 67 -2 -72z"/>
<path d="M2140 3550 c0 -40 4 -70 10 -70 6 0 10 30 10 70 0 40 -4 70 -10 70
-6 0 -10 -30 -10 -70z"/>
<path d="M2203 3613 c26 -4 27 -6 27 -69 0 -36 4 -64 10 -64 6 0 10 28 10 64
0 63 1 65 28 69 15 2 -2 4 -38 4 -36 0 -53 -2 -37 -4z"/>
<path d="M2810 3550 c0 -40 4 -70 10 -70 6 0 10 30 10 70 0 40 -4 70 -10 70
-6 0 -10 -30 -10 -70z"/>
<path d="M3783 3550 c0 -41 2 -58 4 -37 2 20 2 54 0 75 -2 20 -4 3 -4 -38z"/>
<path d="M4240 3583 c-13 -21 -28 -43 -35 -48 -7 -6 -15 -21 -19 -35 l-7 -25
20 23 c15 17 30 22 71 22 41 0 56 -4 71 -22 10 -13 18 -18 18 -13 -1 16 -74
128 -86 132 -6 2 -21 -13 -33 -34z m53 -12 c23 -40 23 -41 -23 -41 -22 0 -40
3 -40 6 0 10 34 64 40 64 3 0 13 -13 23 -29z"/>
<path d="M4382 3553 l-2 -73 63 2 62 2 -57 3 -57 4 -4 67 -3 67 -2 -72z"/>
<path d="M620 3320 l0 -30 1810 0 1810 0 0 30 0 30 -1810 0 -1810 0 0 -30z"/>
<path d="M1515 3036 c-68 -23 -1284 -654 -1351 -701 -180 -129 -203 -285 -62
-426 26 -26 71 -62 100 -79 107 -63 1353 -661 1397 -671 29 -6 356 -9 861 -7
l815 3 677 336 c559 278 685 344 725 383 54 50 95 117 113 184 22 85 -40 205
-148 285 -35 26 -327 170 -752 372 l-695 330 -820 2 c-654 2 -828 -1 -860 -11z
m715 -63 c0 -5 -224 -141 -497 -303 -687 -407 -673 -398 -720 -499 -28 -59
-28 -124 0 -178 20 -37 80 -99 125 -127 68 -41 314 -148 451 -194 l136 -46
180 0 c222 -1 299 16 482 104 157 75 276 154 374 247 97 93 132 156 133 238 0
99 -46 175 -168 273 -22 17 -38 34 -35 37 3 3 46 8 96 11 177 13 355 -35 638
-170 176 -85 216 -112 252 -173 48 -82 24 -170 -65 -240 -26 -21 -311 -195
-634 -386 l-586 -348 -399 3 -398 3 -255 124 c-140 68 -444 216 -675 328 -231
112 -444 222 -473 245 -138 104 -147 220 -25 328 61 53 57 51 773 419 l605
311 343 0 c188 0 342 -3 342 -7z m1360 -192 c223 -106 529 -252 680 -323 291
-138 313 -150 373 -207 76 -71 96 -155 57 -236 -44 -91 -64 -103 -770 -457
l-665 -333 -370 -3 c-318 -2 -368 -1 -355 11 8 8 249 153 535 322 286 169 538
321 560 338 86 65 124 131 125 215 0 63 -16 106 -60 156 -49 56 -104 89 -270
166 -312 145 -479 184 -688 162 -152 -16 -248 -43 -386 -111 -157 -77 -262
-147 -359 -240 -100 -95 -128 -142 -134 -225 -9 -103 14 -155 109 -248 76 -75
77 -78 52 -84 -14 -4 -85 -4 -157 -2 -124 5 -140 8 -267 50 -174 59 -417 170
-470 215 -46 40 -80 99 -80 139 0 44 38 111 83 148 23 19 278 175 567 346 289
172 557 332 595 356 l70 43 410 -2 410 -2 405 -194z m-924 -327 c133 -94 189
-190 164 -283 -31 -117 -265 -302 -520 -412 -122 -53 -159 -58 -202 -28 -59
42 -150 133 -169 171 -26 50 -25 127 2 180 49 96 229 239 419 335 107 53 219
94 234 86 6 -3 39 -25 72 -49z"/>
<path d="M620 850 l0 -30 1810 0 1810 0 0 30 0 30 -1810 0 -1810 0 0 -30z"/>
<path d="M865 611 c-19 -7 -20 -20 -25 -187 l-5 -179 -35 -5 c-27 -4 -35 -10
-35 -25 0 -15 8 -21 35 -25 l35 -5 3 -60 c1 -33 4 -70 7 -83 l5 -22 251 0
c217 0 250 2 256 16 13 34 -14 39 -235 44 l-217 5 0 50 0 50 233 3 232 2 0 25
0 25 -232 2 -233 3 0 155 0 155 235 5 c220 5 235 6 238 24 2 10 -2 22 -10 27
-16 11 -476 10 -503 0z"/>
<path d="M1570 611 c-124 -38 -186 -131 -144 -218 21 -42 69 -78 123 -93 20
-5 87 -16 150 -24 130 -17 182 -38 196 -79 13 -40 -9 -76 -65 -105 -39 -20
-57 -23 -130 -20 -83 4 -122 15 -182 55 -25 16 -29 16 -43 2 -9 -8 -13 -22
-10 -31 10 -25 99 -68 175 -84 62 -12 79 -12 141 0 121 26 179 79 179 164 0
94 -63 134 -248 156 -130 16 -203 41 -221 74 -47 88 55 159 224 155 92 -2 154
-21 208 -64 44 -35 72 -35 72 1 0 31 -73 83 -148 105 -53 16 -232 20 -277 6z"/>
<path d="M2253 601 c-150 -55 -233 -173 -220 -312 6 -71 34 -124 92 -178 55
-51 111 -77 205 -97 62 -13 79 -12 142 1 92 19 182 64 186 94 5 35 -23 35 -93
0 -133 -65 -293 -47 -391 43 -55 50 -74 93 -74 162 0 72 18 114 70 165 57 55
135 84 232 84 69 1 84 -3 153 -37 69 -34 79 -37 92 -23 24 24 10 43 -63 78
-62 31 -77 34 -174 37 -84 2 -115 -2 -157 -17z"/>
<path d="M2863 601 c-98 -36 -174 -104 -209 -186 -7 -19 -14 -63 -14 -97 0
-81 31 -148 94 -206 56 -52 112 -78 206 -98 61 -12 79 -12 140 0 96 20 151 47
209 101 67 63 94 128 89 214 -2 37 -13 84 -23 106 -28 57 -92 117 -161 150
-52 26 -72 29 -169 32 -89 3 -120 0 -162 -16z m278 -61 c180 -68 232 -255 106
-377 -75 -73 -117 -88 -237 -88 -95 0 -110 3 -156 27 -64 34 -130 108 -145
161 -44 164 127 319 331 300 30 -3 76 -13 101 -23z"/>
<path d="M3455 607 c-3 -7 -4 -140 -3 -297 l3 -285 25 0 25 0 3 238 c1 130 6
237 10 237 4 0 55 -50 113 -112 92 -98 108 -111 126 -103 11 6 62 56 113 113
52 56 97 102 102 102 4 0 9 -107 10 -237 l3 -238 25 0 25 0 0 295 c0 293 0
295 -21 298 -20 3 -104 -80 -238 -233 l-26 -30 -127 133 c-120 125 -157 151
-168 119z"/>
</g>
</svg>
